<svg width="374" height="81" version="1.1" xmlns="http://www.w3.org/2000/svg" desc="Created with imagetracer.js version 1.2.6" ><path fill="rgb(59,77,114)" stroke="rgb(59,77,114)" stroke-width="1" opacity="1" d="M 51.5 11 L 49.5 14 L 47 13.5 L 51.5 11 Z " /><path fill="rgb(59,77,114)" stroke="rgb(59,77,114)" stroke-width="1" opacity="1" d="M 52.5 13 L 53.5 15 L 52.5 13 Z " /><path fill="rgb(59,77,114)" stroke="rgb(59,77,114)" stroke-width="1" opacity="1" d="M 206.5 14 L 210 14.5 L 206.5 15 L 206.5 14 Z " /><path fill="rgb(59,77,114)" stroke="rgb(59,77,114)" stroke-width="1" opacity="1" d="M 51.5 15 L 51 16.5 L 50.5 18 L 50 16.5 L 51.5 15 Z " /><path fill="rgb(59,77,114)" stroke="rgb(59,77,114)" stroke-width="1" opacity="1" d="M 204.5 20 L 203.5 22 L 204.5 20 Z " /><path fill="rgb(59,77,114)" stroke="rgb(59,77,114)" stroke-width="1" opacity="1" d="M 37.5 22 L 39 22.5 L 35.5 25 L 37.5 22 Z " /><path fill="rgb(59,77,114)" stroke="rgb(59,77,114)" stroke-width="1" opacity="1" d="M 139.5 22 L 138.5 24 L 139.5 22 Z " /><path fill="rgb(59,77,114)" stroke="rgb(59,77,114)" stroke-width="1" opacity="1" d="M 43.5 25 L 44 27.5 L 43 27.5 L 43.5 25 Z " /><path fill="rgb(59,77,114)" stroke="rgb(59,77,114)" stroke-width="1" opacity="1" d="M 52.5 25 L 49.5 29 L 52.5 25 Z " /><path fill="rgb(59,77,114)" stroke="rgb(59,77,114)" stroke-width="1" opacity="1" d="M 170.5 25 L 177 25.5 L 170.5 26 L 170.5 25 Z " /><path fill="rgb(59,77,114)" stroke="rgb(59,77,114)" stroke-width="1" opacity="1" d="M 104.5 26 L 116 26.5 L 104.5 27 L 104.5 26 Z " /><path fill="rgb(59,77,114)" stroke="rgb(59,77,114)" stroke-width="1" opacity="1" d="M 198.5 27 L 199.5 29 L 198.5 27 Z " /><path fill="rgb(59,77,114)" stroke="rgb(59,77,114)" stroke-width="1" opacity="1" d="M 170.5 30 L 179 30.5 L 170.5 31 L 170.5 30 Z " /><path fill="rgb(59,77,114)" stroke="rgb(59,77,114)" stroke-width="1" opacity="1" d="M 55.5 34 L 56 36.5 L 54.5 36 L 51 38.5 L 55.5 34 Z " /><path fill="rgb(59,77,114)" stroke="rgb(59,77,114)" stroke-width="1" opacity="1" d="M 180.5 34 L 179.5 36 L 180.5 34 Z " /><path fill="rgb(59,77,114)" stroke="rgb(59,77,114)" stroke-width="1" opacity="1" d="M 31.5 36 L 28.5 40 L 31.5 36 Z " /><path fill="rgb(59,77,114)" stroke="rgb(59,77,114)" stroke-width="1" opacity="1" d="M 186.5 37 L 184.5 40 L 186.5 37 Z " /><path fill="rgb(59,77,114)" stroke="rgb(59,77,114)" stroke-width="1" opacity="1" d="M 196.5 37 L 198 39.5 L 196 38.5 L 196.5 37 Z " /><path fill="rgb(59,77,114)" stroke="rgb(59,77,114)" stroke-width="1" opacity="1" d="M 54.5 38 L 50.5 43 L 54.5 38 Z " /><path fill="rgb(59,77,114)" stroke="rgb(59,77,114)" stroke-width="1" opacity="1" d="M 203.5 41 L 206 41.5 L 203.5 42 L 203.5 41 Z " /><path fill="rgb(59,77,114)" stroke="rgb(59,77,114)" stroke-width="1" opacity="1" d="M 208.5 41 L 211 41.5 L 208.5 42 L 208.5 41 Z " /><path fill="rgb(59,77,114)" stroke="rgb(59,77,114)" stroke-width="1" opacity="1" d="M 26.5 42 Q 29.5 43.5 26.5 45 L 26.5 42 Z " /><path fill="rgb(59,77,114)" stroke="rgb(59,77,114)" stroke-width="1" opacity="1" d="M 29.5 45 L 25.5 50 L 29.5 45 Z " /><path fill="rgb(59,77,114)" stroke="rgb(59,77,114)" stroke-width="1" opacity="1" d="M 32.5 49 L 28.5 54 L 32.5 49 Z " /><path fill="rgb(59,77,114)" stroke="rgb(59,77,114)" stroke-width="1" opacity="1" d="M 133.5 54 L 134 67.5 L 133 67.5 L 133.5 54 Z " /><path fill="rgb(59,77,114)" stroke="rgb(59,77,114)" stroke-width="1" opacity="1" d="M 154.5 55 L 153.5 57 L 154.5 55 Z " /><path fill="rgb(59,77,114)" stroke="rgb(59,77,114)" stroke-width="1" opacity="1" d="M 164.5 55 L 165.5 57 L 164.5 55 Z " /><path fill="rgb(59,77,114)" stroke="rgb(59,77,114)" stroke-width="1" opacity="1" d="M 217.5 55 L 216.5 57 L 217.5 55 Z " /><path fill="rgb(59,77,114)" stroke="rgb(59,77,114)" stroke-width="1" opacity="1" d="M 113.5 56 L 115.5 59 L 113.5 56 Z " /><path fill="rgb(59,77,114)" stroke="rgb(59,77,114)" stroke-width="1" opacity="1" d="M 135.5 56 L 136 60 L 142 60.5 L 135 61 L 135.5 56 Z " /><path fill="rgb(59,77,114)" stroke="rgb(59,77,114)" stroke-width="1" opacity="1" d="M 156.5 56 L 154.5 59 L 156.5 56 Z " /><path fill="rgb(59,77,114)" stroke="rgb(59,77,114)" stroke-width="1" opacity="1" d="M 219.5 56 L 217.5 59 L 219.5 56 Z " /><path fill="rgb(59,77,114)" stroke="rgb(59,77,114)" stroke-width="1" opacity="1" d="M 113.5 59 L 114.5 61 L 113.5 59 Z " /><path fill="rgb(59,77,114)" stroke="rgb(59,77,114)" stroke-width="1" opacity="1" d="M 25.5 61 L 26 68 L 24 67.5 L 25.5 61 Z " /><path fill="rgb(59,77,114)" stroke="rgb(59,77,114)" stroke-width="1" opacity="1" d="M 117.5 61 L 118.5 63 L 117.5 61 Z " /><path fill="rgb(59,77,114)" stroke="rgb(59,77,114)" stroke-width="1" opacity="1" d="M 135 62 L 142 62.5 L 136 63 L 135.5 68 L 135 62 Z " /><path fill="rgb(59,77,114)" stroke="rgb(59,77,114)" stroke-width="1" opacity="1" d="M 116.5 63 L 118.5 66 L 116.5 63 Z " /><path fill="rgb(59,77,114)" stroke="rgb(59,77,114)" stroke-width="1" opacity="1" d="M 153.5 65 L 155.5 68 L 153.5 65 Z " /><path fill="rgb(59,77,114)" stroke="rgb(59,77,114)" stroke-width="1" opacity="1" d="M 165.5 65 L 163.5 68 L 165.5 65 Z " /><path fill="rgb(59,77,114)" stroke="rgb(59,77,114)" stroke-width="1" opacity="1" d="M 216.5 65 L 218.5 68 L 216.5 65 Z " /><path fill="rgb(59,77,114)" stroke="rgb(59,77,114)" stroke-width="1" opacity="1" d="M 227.5 65 L 228 66.5 L 226 67.5 L 227.5 65 Z " /><path fill="rgb(59,77,114)" stroke="rgb(59,77,114)" stroke-width="1" opacity="1" d="M 158.5 66 L 161 66.5 L 158.5 67 L 158.5 66 Z " /><path fill="rgb(59,77,114)" stroke="rgb(59,77,114)" stroke-width="1" opacity="1" d="M 198.5 66 L 206 66.5 L 198.5 67 L 198.5 66 Z " /><path fill="rgb(59,77,114)" stroke="rgb(59,77,114)" stroke-width="1" opacity="1" d="M 221.5 66 L 224 66.5 L 221.5 67 L 221.5 66 Z " /><path fill="rgb(1,30,93)" stroke="rgb(1,30,93)" stroke-width="1" opacity="1" d="M 2 3 L 77 3 L 77 79 L 2 79 L 2 3 Z M 52 11 L 47 14 L 49 14 L 51 18 L 51 17 L 54 15 L 52 11 Z M 55 18 L 54 24 L 48 30 L 32 36 L 26 43 L 27 45 L 36 39 Q 44 39 50 35 L 56 28 Q 57 21 55 18 Z M 38 22 L 35 25 Q 34 30 38 31 L 43 30 L 44 28 L 43 23 L 38 22 Z M 56 34 L 47 41 Q 36 41 30 45 L 23 54 Q 21 65 26 71 L 26 59 L 28 55 L 34 49 L 51 43 L 56 37 L 56 34 Z " /><path fill="rgb(1,30,93)" stroke="rgb(1,30,93)" stroke-width="1" opacity="1" d="M 81 3 L 371.5 3 L 372 3.5 L 372 79 L 81.5 79 L 81 78.5 L 81 3 Z M 207 14 Q 200 15 197 20 L 198 28 L 209 32 Q 213 31 211 36 Q 203 37 199 34 L 196 39 L 204 42 L 214 41 Q 219 39 218 31 L 213 26 L 205 24 Q 201 22 206 20 Q 213 19 216 22 L 217 16 L 207 14 Z M 98 15 L 98 41 L 104 41 L 104 32 L 116 32 L 116 26 L 104 26 L 104 20 L 118 20 L 118 15 L 98 15 Z M 137 15 L 125 40 L 126 41 L 132 41 L 133 39 L 134 36 L 145 36 L 146 40 L 148 41 L 154 41 L 143 17 Q 144 13 137 15 Z M 163 15 L 163 41 L 183 41 L 185 40 L 188 35 L 187 31 L 183 28 L 185 27 L 186 25 Q 187 19 185 17 L 181 15 L 163 15 Z M 97 54 L 97 68 L 99 68 L 99 55 L 97 54 Z M 110 54 L 110 68 L 112 68 L 113 58 L 116 64 L 122 68 L 122 55 L 120 54 L 120 64 L 116 59 L 110 54 Z M 133 54 L 133 68 L 136 68 L 136 63 Q 141 64 143 62 Q 141 58 136 60 L 136 56 L 144 56 L 144 54 L 133 54 Z M 157 54 L 155 55 L 152 59 L 153 66 L 156 68 L 160 69 L 164 68 L 167 64 L 166 57 Q 164 53 157 54 Z M 175 54 L 175 56 L 180 56 L 180 68 L 182 68 L 182 56 L 187 56 L 187 54 L 175 54 Z M 196 54 L 196 68 L 206 68 L 206 66 L 198 66 L 198 62 L 205 62 L 205 60 L 198 60 L 198 56 L 206 56 L 206 54 L 196 54 Z M 220 54 L 218 55 L 215 59 L 216 66 L 219 68 L 223 69 L 227 68 L 228 65 L 226 66 Q 220 67 218 65 L 217 63 Q 216 57 221 56 L 226 57 Q 229 58 228 55 Q 226 53 220 54 Z M 238 54 L 238 68 L 240 68 L 240 62 L 248 62 L 248 68 L 250 68 L 250 54 L 248 54 L 248 60 L 240 60 L 240 54 L 238 54 Z " /><path fill="rgb(1,30,93)" stroke="rgb(1,30,93)" stroke-width="1" opacity="1" d="M 170 20 L 177.5 20 L 179 21.5 L 179 25 L 170 25 L 170 20 Z " /><path fill="rgb(1,30,93)" stroke="rgb(1,30,93)" stroke-width="1" opacity="1" d="M 139.5 23 L 143 30.5 L 136 31 L 139.5 23 Z " /><path fill="rgb(1,30,93)" stroke="rgb(1,30,93)" stroke-width="1" opacity="1" d="M 170 31 L 179.5 31 L 181 32.5 L 178.5 36 L 170 36 L 170 31 Z " /><path fill="rgb(1,30,93)" stroke="rgb(1,30,93)" stroke-width="1" opacity="1" d="M 157.5 56 L 164 57 L 165 62.5 L 162.5 66 Q 157.1 66.6 155 65 L 154 59.5 L 157.5 56 Z " /><path fill="rgb(193,192,187)" stroke="rgb(193,192,187)" stroke-width="1" opacity="1" d="M 1.5 3 L 2 78.5 L 1 78.5 L 1.5 3 Z " /><path fill="rgb(193,192,187)" stroke="rgb(193,192,187)" stroke-width="1" opacity="1" d="M 80.5 3 L 81 78.5 L 80 78.5 L 80.5 3 Z " /><path fill="rgb(193,192,187)" stroke="rgb(193,192,187)" stroke-width="1" opacity="1" d="M 51.5 12 L 53 14.5 L 50.5 16 Q 47 14 51.5 12 Z " /><path fill="rgb(193,192,187)" stroke="rgb(193,192,187)" stroke-width="1" opacity="1" d="M 98.5 15 L 117.5 15 Q 118.5 15 118 19.5 L 117 19.5 L 116.5 16 L 98.5 16 L 98.5 15 Z " /><path fill="rgb(193,192,187)" stroke="rgb(193,192,187)" stroke-width="1" opacity="1" d="M 136.5 15 L 142 15.5 L 136.5 16 L 136.5 15 Z " /><path fill="rgb(193,192,187)" stroke="rgb(193,192,187)" stroke-width="1" opacity="1" d="M 164.5 15 L 180 15.5 L 164 16 L 163.5 41 L 163 16.5 L 164.5 15 Z " /><path fill="rgb(193,192,187)" stroke="rgb(193,192,187)" stroke-width="1" opacity="1" d="M 182.5 16 L 184.5 19 L 182.5 16 Z " /><path fill="rgb(193,192,187)" stroke="rgb(193,192,187)" stroke-width="1" opacity="1" d="M 215.5 16 L 216.5 18 L 215.5 16 Z " /><path fill="rgb(193,192,187)" stroke="rgb(193,192,187)" stroke-width="1" opacity="1" d="M 199.5 17 L 198.5 19 L 199.5 17 Z " /><path fill="rgb(193,192,187)" stroke="rgb(193,192,187)" stroke-width="1" opacity="1" d="M 54.5 19 L 56 23 Q 52.2 24.2 54.5 19 Z " /><path fill="rgb(193,192,187)" stroke="rgb(193,192,187)" stroke-width="1" opacity="1" d="M 170.5 19 L 177 19.5 L 170 20 L 169.5 26 L 169 20.5 L 170.5 19 Z " /><path fill="rgb(193,192,187)" stroke="rgb(193,192,187)" stroke-width="1" opacity="1" d="M 206.5 19 L 210 19.5 L 206.5 20 L 206.5 19 Z " /><path fill="rgb(193,192,187)" stroke="rgb(193,192,187)" stroke-width="1" opacity="1" d="M 139.5 21 L 138.5 23 L 139.5 21 Z " /><path fill="rgb(193,192,187)" stroke="rgb(193,192,187)" stroke-width="1" opacity="1" d="M 41.5 23 L 42.5 25 L 41.5 23 Z " /><path fill="rgb(193,192,187)" stroke="rgb(193,192,187)" stroke-width="1" opacity="1" d="M 179.5 24 L 178.5 26 L 177 25.5 L 179.5 24 Z " /><path fill="rgb(193,192,187)" stroke="rgb(193,192,187)" stroke-width="1" opacity="1" d="M 35.5 25 L 36 27.5 L 35 27.5 L 35.5 25 Z " /><path fill="rgb(193,192,187)" stroke="rgb(193,192,187)" stroke-width="1" opacity="1" d="M 215.5 28 L 216.5 30 L 215.5 28 Z " /><path fill="rgb(193,192,187)" stroke="rgb(193,192,187)" stroke-width="1" opacity="1" d="M 38.5 30 L 41 30.5 L 38.5 31 L 38.5 30 Z " /><path fill="rgb(193,192,187)" stroke="rgb(193,192,187)" stroke-width="1" opacity="1" d="M 53.5 30 L 50.5 34 L 53.5 30 Z " /><path fill="rgb(193,192,187)" stroke="rgb(193,192,187)" stroke-width="1" opacity="1" d="M 169.5 30 L 170 36 L 179 36.5 L 169 37 L 169.5 30 Z " /><path fill="rgb(193,192,187)" stroke="rgb(193,192,187)" stroke-width="1" opacity="1" d="M 179.5 30 L 180.5 32 L 179.5 30 Z " /><path fill="rgb(193,192,187)" stroke="rgb(193,192,187)" stroke-width="1" opacity="1" d="M 104.5 31 L 116 31.5 L 104.5 32 L 104.5 31 Z " /><path fill="rgb(193,192,187)" stroke="rgb(193,192,187)" stroke-width="1" opacity="1" d="M 133.5 35 L 146 35.5 L 133.5 36 L 133.5 35 Z " /><path fill="rgb(193,192,187)" stroke="rgb(193,192,187)" stroke-width="1" opacity="1" d="M 54.5 36 L 55 37.5 L 49.5 43 L 36.5 47 L 28 53.5 Q 24.6 58.6 24.5 67 Q 21.7 62.9 23 54.5 L 30.5 45 Q 37.5 41.5 47.5 41 L 54.5 36 Z " /><path fill="rgb(193,192,187)" stroke="rgb(193,192,187)" stroke-width="1" opacity="1" d="M 216.5 37 L 214.5 40 L 216.5 37 Z " /><path fill="rgb(193,192,187)" stroke="rgb(193,192,187)" stroke-width="1" opacity="1" d="M 27.5 41 L 30 41.5 Q 27.9 44.8 27.5 41 Z " /><path fill="rgb(193,192,187)" stroke="rgb(193,192,187)" stroke-width="1" opacity="1" d="M 98.5 54 L 99 67.5 L 98 67.5 L 98.5 54 Z " /><path fill="rgb(193,192,187)" stroke="rgb(193,192,187)" stroke-width="1" opacity="1" d="M 110 54 L 113 55.5 L 111 55.5 Q 110.3 57.8 112.5 57 L 112 58.5 L 112 67.5 L 110 68 L 110 54 Z " /><path fill="rgb(193,192,187)" stroke="rgb(193,192,187)" stroke-width="1" opacity="1" d="M 120 54 L 122 54.5 L 121 55.5 L 121 65 L 119 64.5 L 120 63.5 L 120 54 Z " /><path fill="rgb(193,192,187)" stroke="rgb(193,192,187)" stroke-width="1" opacity="1" d="M 157.5 54 L 158.5 56 Q 155.7 56.7 157.5 54 Z " /><path fill="rgb(193,192,187)" stroke="rgb(193,192,187)" stroke-width="1" opacity="1" d="M 161.5 54 L 162 56 L 160 55.5 L 161.5 54 Z " /><path fill="rgb(193,192,187)" stroke="rgb(193,192,187)" stroke-width="1" opacity="1" d="M 175.5 54 L 180 55.5 L 176.5 56 L 175.5 54 Z " /><path fill="rgb(193,192,187)" stroke="rgb(193,192,187)" stroke-width="1" opacity="1" d="M 205.5 54 L 204.5 56 L 198 56 L 198 60 L 205 60.5 Q 203.4 63.5 198 62 L 197.5 67 L 197 55 L 204.5 55 L 205.5 54 Z " /><path fill="rgb(193,192,187)" stroke="rgb(193,192,187)" stroke-width="1" opacity="1" d="M 220.5 54 L 221.5 56 Q 218.7 56.7 220.5 54 Z " /><path fill="rgb(193,192,187)" stroke="rgb(193,192,187)" stroke-width="1" opacity="1" d="M 224.5 54 L 226 54.5 L 223.5 56 L 224.5 54 Z " /><path fill="rgb(193,192,187)" stroke="rgb(193,192,187)" stroke-width="1" opacity="1" d="M 239.5 54 L 240 60 L 247.5 60 L 248 62 L 240 62 L 240 67.5 L 239 67.5 Q 237.5 62 240 60.5 Q 237.4 58.9 239.5 54 Z " /><path fill="rgb(193,192,187)" stroke="rgb(193,192,187)" stroke-width="1" opacity="1" d="M 248.5 54 L 250 54.5 L 250 67.5 L 249 67.5 L 249 55.5 L 248.5 54 Z " /><path fill="rgb(193,192,187)" stroke="rgb(193,192,187)" stroke-width="1" opacity="1" d="M 135.5 55 L 143 55.5 L 135.5 56 L 135.5 55 Z " /><path fill="rgb(193,192,187)" stroke="rgb(193,192,187)" stroke-width="1" opacity="1" d="M 181 55 L 186 55.5 L 182 56 L 181.5 68 L 181 55 Z " /><path fill="rgb(193,192,187)" stroke="rgb(193,192,187)" stroke-width="1" opacity="1" d="M 115.5 59 L 117 60.5 L 116.5 63 L 115 61.5 L 115.5 59 Z " /><path fill="rgb(193,192,187)" stroke="rgb(193,192,187)" stroke-width="1" opacity="1" d="M 152.5 59 L 154 61.5 L 152 62.5 L 152.5 59 Z " /><path fill="rgb(193,192,187)" stroke="rgb(193,192,187)" stroke-width="1" opacity="1" d="M 166.5 59 L 167 62.5 L 165 61.5 L 166.5 59 Z " /><path fill="rgb(193,192,187)" stroke="rgb(193,192,187)" stroke-width="1" opacity="1" d="M 215.5 59 L 217 61.5 L 215 62.5 L 215.5 59 Z " /><path fill="rgb(193,192,187)" stroke="rgb(193,192,187)" stroke-width="1" opacity="1" d="M 154.5 64 L 155.5 66 L 154.5 64 Z " /><path fill="rgb(193,192,187)" stroke="rgb(193,192,187)" stroke-width="1" opacity="1" d="M 164.5 64 L 163.5 66 L 164.5 64 Z " /><path fill="rgb(193,192,187)" stroke="rgb(193,192,187)" stroke-width="1" opacity="1" d="M 119.5 66 L 120.5 68 L 119.5 66 Z " /><path fill="rgb(193,192,187)" stroke="rgb(193,192,187)" stroke-width="1" opacity="1" d="M 157.5 66 L 156.5 68 L 157.5 66 Z " /><path fill="rgb(193,192,187)" stroke="rgb(193,192,187)" stroke-width="1" opacity="1" d="M 161.5 66 L 162.5 68 L 161.5 66 Z " /><path fill="rgb(193,192,187)" stroke="rgb(193,192,187)" stroke-width="1" opacity="1" d="M 220.5 66 L 219.5 68 L 220.5 66 Z " /><path fill="rgb(193,192,187)" stroke="rgb(193,192,187)" stroke-width="1" opacity="1" d="M 224.5 66 L 225.5 68 L 224.5 66 Z " /><path fill="rgb(254,254,254)" stroke="rgb(254,254,254)" stroke-width="1" opacity="1" d="M 77.5 3 L 78 78.5 L 77 78.5 L 77.5 3 Z " /><path fill="rgb(254,254,254)" stroke="rgb(254,254,254)" stroke-width="1" opacity="1" d="M 372.5 3 L 373 78.5 L 372 78.5 L 372.5 3 Z " /><path fill="rgb(254,254,254)" stroke="rgb(254,254,254)" stroke-width="1" opacity="1" d="M 98.5 16 L 99 40.5 L 98 40.5 L 98.5 16 Z " /><path fill="rgb(254,254,254)" stroke="rgb(254,254,254)" stroke-width="1" opacity="1" d="M 197.5 21 L 198 23.5 L 197 23.5 L 197.5 21 Z " /><path fill="rgb(254,254,254)" stroke="rgb(254,254,254)" stroke-width="1" opacity="1" d="M 52.5 26 L 50.5 29 L 52.5 26 Z " /><path fill="rgb(254,254,254)" stroke="rgb(254,254,254)" stroke-width="1" opacity="1" d="M 183.5 26 L 183.5 29 Q 180.5 27.5 183.5 26 Z " /><path fill="rgb(254,254,254)" stroke="rgb(254,254,254)" stroke-width="1" opacity="1" d="M 198.5 26 L 199.5 28 L 198.5 26 Z " /><path fill="rgb(254,254,254)" stroke="rgb(254,254,254)" stroke-width="1" opacity="1" d="M 115.5 27 L 116 30.5 L 115 30.5 L 115.5 27 Z " /><path fill="rgb(254,254,254)" stroke="rgb(254,254,254)" stroke-width="1" opacity="1" d="M 42.5 28 L 41.5 30 L 42.5 28 Z " /><path fill="rgb(254,254,254)" stroke="rgb(254,254,254)" stroke-width="1" opacity="1" d="M 181.5 32 L 182 34.5 L 181 34.5 L 181.5 32 Z " /><path fill="rgb(254,254,254)" stroke="rgb(254,254,254)" stroke-width="1" opacity="1" d="M 217.5 32 L 218 34.5 L 217 34.5 L 217.5 32 Z " /><path fill="rgb(254,254,254)" stroke="rgb(254,254,254)" stroke-width="1" opacity="1" d="M 185.5 37 L 184.5 39 L 185.5 37 Z " /><path fill="rgb(254,254,254)" stroke="rgb(254,254,254)" stroke-width="1" opacity="1" d="M 177.5 40 L 180 40.5 L 177.5 41 L 177.5 40 Z " /><path fill="rgb(254,254,254)" stroke="rgb(254,254,254)" stroke-width="1" opacity="1" d="M 134.5 54 L 143 54.5 L 134.5 55 L 134.5 54 Z " /><path fill="rgb(254,254,254)" stroke="rgb(254,254,254)" stroke-width="1" opacity="1" d="M 158.5 54 L 161 54.5 L 158.5 55 L 158.5 54 Z " /><path fill="rgb(254,254,254)" stroke="rgb(254,254,254)" stroke-width="1" opacity="1" d="M 176.5 54 L 186 54.5 L 176.5 55 L 176.5 54 Z " /><path fill="rgb(254,254,254)" stroke="rgb(254,254,254)" stroke-width="1" opacity="1" d="M 196.5 54 L 205 54.5 L 196.5 55 L 196.5 54 Z " /><path fill="rgb(254,254,254)" stroke="rgb(254,254,254)" stroke-width="1" opacity="1" d="M 221.5 54 L 224 54.5 L 221.5 55 L 221.5 54 Z " /><path fill="rgb(254,254,254)" stroke="rgb(254,254,254)" stroke-width="1" opacity="1" d="M 121.5 55 L 122 67.5 L 121 67.5 L 120 65.5 L 121 64.5 L 121.5 55 Z " /><path fill="rgb(254,254,254)" stroke="rgb(254,254,254)" stroke-width="1" opacity="1" d="M 156.5 55 L 154.5 58 L 154 56 L 156.5 55 Z " /><path fill="rgb(254,254,254)" stroke="rgb(254,254,254)" stroke-width="1" opacity="1" d="M 162.5 55 L 166 57.5 L 164 58 Q 165.1 55.3 162.5 56 L 162.5 55 Z " /><path fill="rgb(254,254,254)" stroke="rgb(254,254,254)" stroke-width="1" opacity="1" d="M 219.5 55 L 217.5 58 L 217 56 L 219.5 55 Z " /><path fill="rgb(254,254,254)" stroke="rgb(254,254,254)" stroke-width="1" opacity="1" d="M 248.5 55 L 249 67.5 L 248 67.5 L 248.5 55 Z " /><path fill="rgb(254,254,254)" stroke="rgb(254,254,254)" stroke-width="1" opacity="1" d="M 113.5 57 L 119 64.5 L 117 63.5 L 113 58.5 L 113.5 57 Z " /><path fill="rgb(254,254,254)" stroke="rgb(254,254,254)" stroke-width="1" opacity="1" d="M 153.5 64 L 159 67.5 L 157.5 68 L 153.5 64 Z " /><path fill="rgb(254,254,254)" stroke="rgb(254,254,254)" stroke-width="1" opacity="1" d="M 165.5 64 L 163.5 67 L 160.5 68 L 160.5 67 L 165.5 64 Z " /><path fill="rgb(254,254,254)" stroke="rgb(254,254,254)" stroke-width="1" opacity="1" d="M 216.5 64 L 219.5 66 L 222 67.5 L 220.5 68 L 216.5 64 Z " /><path fill="rgb(254,254,254)" stroke="rgb(254,254,254)" stroke-width="1" opacity="1" d="M 225.5 66 L 227 66.5 L 224.5 68 L 225.5 66 Z " /><path fill="rgb(255,255,255)" stroke="rgb(255,255,255)" stroke-width="1" opacity="1" d="M 0 0 L 373.5 0 L 374 0.5 L 374 81 L 0.5 81 L 0 80.5 L 0 0 Z M 1 3 L 1 79 L 78 79 L 78 3 L 1 3 Z M 80 3 L 80 79 L 81 79 L 373 79 L 373 4 L 373 3 L 80 3 Z " /><path fill="rgb(255,255,255)" stroke="rgb(255,255,255)" stroke-width="1" opacity="1" d="M 205.5 15 L 216 17 L 214.5 21 Q 211.8 18.2 205.5 19 L 203 20 L 202 22.5 L 203 25 L 212.5 27 L 217 30.5 Q 218.5 37.5 214.5 39 Q 211.2 42.2 203.5 41 L 198 39 L 199.5 35 Q 202.4 38.6 210.5 37 Q 212.8 36.3 212 32.5 Q 210 29.5 204.5 30 L 198 25.5 Q 197 19 200.5 17 L 205.5 15 Z " /><path fill="rgb(255,255,255)" stroke="rgb(255,255,255)" stroke-width="1" opacity="1" d="M 99 16 L 116.5 16 L 117 20 L 104 20 L 104 27 L 115 27 L 115 31 L 104 31 L 104 41 L 99 41 L 99 16 Z " /><path fill="rgb(255,255,255)" stroke="rgb(255,255,255)" stroke-width="1" opacity="1" d="M 136 16 Q 141.4 14.5 143 17.5 L 153 40.5 L 148 41 L 146 35 L 133.5 35 L 132 36.5 L 131 41 L 126 41 L 126 39.5 L 136 16 Z M 138 21 L 135 31 L 144 31 L 141 23 L 138 21 Z " /><path fill="rgb(255,255,255)" stroke="rgb(255,255,255)" stroke-width="1" opacity="1" d="M 164 16 L 180.5 16 L 185 19.5 Q 186.3 26.3 182 27.5 L 186 30.5 L 187 34.5 L 182.5 40 L 164 41 L 164 16 Z M 169 19 L 169 26 L 179 26 Q 181 25 180 20 Q 177 18 169 19 Z M 169 30 L 169 37 L 180 37 Q 183 37 182 33 L 180 30 L 169 30 Z " /><path fill="rgb(255,255,255)" stroke="rgb(255,255,255)" stroke-width="1" opacity="1" d="M 38.5 23 Q 42.5 22.5 43 25.5 Q 43.5 29.5 40.5 30 Q 36.8 30.8 36 28.5 Q 34.1 23.1 37.5 24 L 38.5 23 Z " /><path fill="rgb(255,255,255)" stroke="rgb(255,255,255)" stroke-width="1" opacity="1" d="M 54 23 Q 56.7 21.9 56 24.5 Q 54.5 31 49.5 34 Q 44.1 37.6 35.5 38 L 27.5 43 L 29 40.5 L 30.5 38 L 47.5 31 L 53 26.5 L 54 23 Z " /><path fill="rgb(255,255,255)" stroke="rgb(255,255,255)" stroke-width="1" opacity="1" d="M 97.5 55 L 98 67.5 L 97 67.5 L 97.5 55 Z " /><path fill="rgb(255,255,255)" stroke="rgb(255,255,255)" stroke-width="1" opacity="1" d="M 111.5 55 L 112.5 57 L 111.5 55 Z " /><path fill="rgb(255,255,255)" stroke="rgb(255,255,255)" stroke-width="1" opacity="1" d="M 134.5 55 L 135 61 L 142 61.5 L 135 62 L 134.5 68 L 134.5 55 Z " /><path fill="rgb(255,255,255)" stroke="rgb(255,255,255)" stroke-width="1" opacity="1" d="M 180.5 55 L 181 67.5 L 180 67.5 L 180.5 55 Z " /><path fill="rgb(255,255,255)" stroke="rgb(255,255,255)" stroke-width="1" opacity="1" d="M 196.5 55 L 197 67 L 205 67.5 L 196 68 L 196.5 55 Z " /><path fill="rgb(255,255,255)" stroke="rgb(255,255,255)" stroke-width="1" opacity="1" d="M 238.5 55 L 239 67.5 L 238 67.5 L 238.5 55 Z " /><path fill="rgb(255,255,255)" stroke="rgb(255,255,255)" stroke-width="1" opacity="1" d="M 119.5 65 L 120.5 67 L 119.5 65 Z " /></svg>